<svg width="16" height="16" viewBox="0 0 16 16" fill="none" xmlns="http://www.w3.org/2000/svg">
<path fill-rule="evenodd" clip-rule="evenodd" d="M11.1693 5.82663C11.6223 5.3721 11.4753 4.90722 11.2603 4.6915C11.0453 4.47578 10.5819 4.32831 10.1289 4.78283L7.97912 6.93967L5.83336 4.78685C5.35739 4.30931 4.91635 4.47239 4.69795 4.6915C4.47956 4.91061 4.26972 5.30566 4.79299 5.83064L6.93875 7.98347L4.79699 10.1323C4.34395 10.5868 4.48295 11.0597 4.69795 11.2754C4.91296 11.4912 5.38433 11.6306 5.83736 11.1761L7.97912 9.02726L10.1249 11.1801C10.576 11.6327 11.0487 11.4878 11.2637 11.272C11.4787 11.0563 11.6164 10.5889 11.1653 10.1363L9.01949 7.98347L11.1693 5.82663ZM8 16C3.58172 16 0 12.4183 0 8C0 3.58172 3.58172 0 8 0C12.4183 0 16 3.58172 16 8C16 12.4183 12.4183 16 8 16Z" fill="#646464"/>
</svg>
