<svg width="28" height="28" viewBox="0 0 28 28" fill="none" xmlns="http://www.w3.org/2000/svg">
<g clip-path="url(#clip0_204_1762)">
<path d="M23.3333 25.6663H4.66667C4.35725 25.6663 4.0605 25.5434 3.84171 25.3246C3.62292 25.1058 3.5 24.8091 3.5 24.4997V3.49967C3.5 3.19026 3.62292 2.89351 3.84171 2.67472C4.0605 2.45592 4.35725 2.33301 4.66667 2.33301H23.3333C23.6428 2.33301 23.9395 2.45592 24.1583 2.67472C24.3771 2.89351 24.5 3.19026 24.5 3.49967V24.4997C24.5 24.8091 24.3771 25.1058 24.1583 25.3246C23.9395 25.5434 23.6428 25.6663 23.3333 25.6663ZM22.1667 23.333V4.66634H5.83333V23.333H22.1667ZM9.33333 8.16634H18.6667V10.4997H9.33333V8.16634ZM9.33333 12.833H18.6667V15.1663H9.33333V12.833ZM9.33333 17.4997H18.6667V19.833H9.33333V17.4997Z" fill="#646464"/>
</g>
<defs>
<clipPath id="clip0_204_1762">
<rect width="28" height="28" fill="white"/>
</clipPath>
</defs>
</svg>
