<svg width="1" height="1" viewBox="0 0 14 15" fill="none" xmlns="http://www.w3.org/2000/svg">
<path fill-rule="evenodd" clip-rule="evenodd" d="M5.51001 11.5098C2.47241 11.5098 0.0100098 9.04736 0.0100098 6.00977C0.0100098 2.97217 2.47241 0.509766 5.51001 0.509766C8.54761 0.509766 11.01 2.97217 11.01 6.00977C11.01 7.30469 10.5625 8.49561 9.8136 9.43506C9.84509 9.45166 9.87549 9.47119 9.90442 9.49316C9.92712 9.51025 9.94885 9.5293 9.9696 9.55029L13.788 13.3687C14.0419 13.6226 14.0419 14.0342 13.788 14.2881C13.5342 14.5415 13.1226 14.5415 12.8688 14.2881L9.05042 10.4697C9.00317 10.4224 8.9646 10.3696 8.93494 10.3135C7.99524 11.0625 6.80493 11.5098 5.51001 11.5098ZM10.01 6.00977C10.01 8.49512 7.99524 10.5098 5.51001 10.5098C3.02478 10.5098 1.01001 8.49512 1.01001 6.00977C1.01001 3.52441 3.02478 1.50977 5.51001 1.50977C7.99524 1.50977 10.01 3.52441 10.01 6.00977Z" fill="#646464"/>
</svg>
