<svg width="24" height="24" viewBox="0 0 24 24" fill="none" xmlns="http://www.w3.org/2000/svg">
<path d="M1.89662 17.8331C1.40343 16.9803 1.02006 16.0685 0.755615 15.1195C1.33114 14.8267 1.81448 14.3805 2.15215 13.8302C2.48982 13.2798 2.66867 12.6468 2.66892 12.0011C2.66916 11.3554 2.49078 10.7222 2.15352 10.1716C1.81626 9.62102 1.33325 9.17444 0.757949 8.88129C1.28532 6.97436 2.28947 5.23307 3.67578 3.82146C4.21722 4.17347 4.8455 4.36881 5.49109 4.38587C6.13668 4.40293 6.77439 4.24103 7.33367 3.9181C7.89294 3.59517 8.35196 3.12379 8.65993 2.55614C8.9679 1.98849 9.11281 1.3467 9.07862 0.701793C10.9944 0.206686 13.0047 0.207489 14.9201 0.704127C14.8862 1.34902 15.0314 1.99071 15.3396 2.5582C15.6478 3.12569 16.107 3.59685 16.6664 3.91953C17.2258 4.24221 17.8636 4.40384 18.5091 4.38654C19.1547 4.36923 19.7828 4.17365 20.3241 3.82146C20.9996 4.50979 21.5993 5.29263 22.1033 6.16646C22.6084 7.04029 22.9865 7.95146 23.2443 8.88013C22.6688 9.17284 22.1854 9.61906 21.8477 10.1694C21.5101 10.7198 21.3312 11.3528 21.331 11.9985C21.3307 12.6442 21.5091 13.2774 21.8464 13.828C22.1836 14.3786 22.6666 14.8251 23.242 15.1183C22.7146 17.0252 21.7104 18.7665 20.3241 20.1781C19.7827 19.8261 19.1544 19.6308 18.5088 19.6137C17.8632 19.5967 17.2255 19.7586 16.6662 20.0815C16.107 20.4044 15.6479 20.8758 15.34 21.4434C15.032 22.0111 14.8871 22.6529 14.9213 23.2978C13.0055 23.7929 10.9952 23.7921 9.07978 23.2955C9.11367 22.6506 8.96848 22.0089 8.66027 21.4414C8.35207 20.8739 7.89287 20.4027 7.33348 20.0801C6.7741 19.7574 6.13635 19.5957 5.4908 19.613C4.84525 19.6304 4.21707 19.8259 3.67578 20.1781C2.98627 19.4746 2.38848 18.6866 1.89662 17.8331ZM8.49995 18.0618C9.74318 18.7789 10.6779 19.9296 11.1249 21.2935C11.7071 21.3483 12.2916 21.3495 12.8738 21.2946C13.3211 19.9306 14.2563 18.7798 15.5 18.063C16.7427 17.3439 18.2072 17.1092 19.6124 17.4038C19.9508 16.9278 20.2425 16.4203 20.4851 15.8895C19.5278 14.8201 18.9989 13.435 19 11.9998C19 10.5298 19.5483 9.15663 20.4851 8.11013C20.2407 7.57947 19.9478 7.07253 19.6101 6.59579C18.2058 6.89015 16.7422 6.65585 15.5 5.93779C14.2567 5.22073 13.322 4.06994 12.875 2.70613C12.2928 2.65129 11.7083 2.65013 11.1261 2.70496C10.6788 4.06896 9.74362 5.21978 8.49995 5.93663C7.2572 6.65566 5.79267 6.8904 4.38745 6.59579C4.04978 7.07213 3.7576 7.57913 3.51478 8.11013C4.47211 9.17945 5.00098 10.5645 4.99995 11.9998C4.99995 13.4698 4.45162 14.843 3.51478 15.8895C3.75917 16.4201 4.05208 16.9271 4.38978 17.4038C5.79412 17.1094 7.25769 17.3437 8.49995 18.0618ZM11.9999 15.4998C11.0717 15.4998 10.1815 15.131 9.52507 14.4747C8.8687 13.8183 8.49995 12.9281 8.49995 11.9998C8.49995 11.0715 8.8687 10.1813 9.52507 9.52492C10.1815 8.86854 11.0717 8.49979 11.9999 8.49979C12.9282 8.49979 13.8184 8.86854 14.4748 9.52492C15.1312 10.1813 15.5 11.0715 15.5 11.9998C15.5 12.9281 15.1312 13.8183 14.4748 14.4747C13.8184 15.131 12.9282 15.4998 11.9999 15.4998ZM11.9999 13.1665C12.3094 13.1665 12.6061 13.0435 12.8249 12.8247C13.0437 12.606 13.1666 12.3092 13.1666 11.9998C13.1666 11.6904 13.0437 11.3936 12.8249 11.1748C12.6061 10.956 12.3094 10.8331 11.9999 10.8331C11.6905 10.8331 11.3938 10.956 11.175 11.1748C10.9562 11.3936 10.8333 11.6904 10.8333 11.9998C10.8333 12.3092 10.9562 12.606 11.175 12.8247C11.3938 13.0435 11.6905 13.1665 11.9999 13.1665Z" fill="#456BF1"/>
</svg>
