<svg width="28" height="28" viewBox="0 0 28 28" fill="none" xmlns="http://www.w3.org/2000/svg">
<g clip-path="url(#clip0_204_2128)">
<path d="M14 25.6663C7.55654 25.6663 2.33337 20.4432 2.33337 13.9997C2.33337 8.77534 5.76687 4.35367 10.5 2.86734V5.34534C8.49445 6.15973 6.83414 7.64567 5.80311 9.54898C4.77208 11.4523 4.4344 13.6547 4.84784 15.7795C5.26127 17.9043 6.40013 19.8194 8.0696 21.1972C9.73907 22.5751 11.8354 23.3301 14 23.333C15.8595 23.333 17.6765 22.7777 19.2184 21.7385C20.7602 20.6992 21.9567 19.2232 22.6544 17.4997H25.1324C23.646 22.2328 19.2244 25.6663 14 25.6663ZM25.6084 15.1663H12.8334V2.39134C13.2172 2.35284 13.6069 2.33301 14 2.33301C20.4435 2.33301 25.6667 7.55618 25.6667 13.9997C25.6667 14.3928 25.6469 14.7825 25.6084 15.1663ZM15.1667 4.73867V12.833H23.261C23.0014 10.7769 22.0651 8.86557 20.5996 7.40012C19.1342 5.93467 17.2228 4.99836 15.1667 4.73867Z" fill="#456BF1"/>
</g>
<defs>
<clipPath id="clip0_204_2128">
<rect width="28" height="28" fill="white"/>
</clipPath>
</defs>
</svg>
