<svg width="28" height="28" viewBox="0 0 28 28" fill="none" xmlns="http://www.w3.org/2000/svg">
<g clip-path="url(#clip0_204_1759)">
<path d="M13.9999 25.6663C7.55642 25.6663 2.33325 20.4432 2.33325 13.9997C2.33325 8.77534 5.76675 4.35367 10.4999 2.86734V5.34534C8.49433 6.15973 6.83402 7.64567 5.80299 9.54898C4.77196 11.4523 4.43428 13.6547 4.84771 15.7795C5.26115 17.9043 6.40001 19.8194 8.06948 21.1972C9.73895 22.5751 11.8353 23.3301 13.9999 23.333C15.8593 23.333 17.6764 22.7777 19.2182 21.7385C20.7601 20.6992 21.9565 19.2232 22.6543 17.4997H25.1323C23.6459 22.2328 19.2243 25.6663 13.9999 25.6663ZM25.6083 15.1663H12.8333V2.39134C13.2171 2.35284 13.6068 2.33301 13.9999 2.33301C20.4434 2.33301 25.6666 7.55618 25.6666 13.9997C25.6666 14.3928 25.6468 14.7825 25.6083 15.1663ZM15.1666 4.73867V12.833H23.2609C23.0012 10.7769 22.0649 8.86557 20.5995 7.40012C19.134 5.93467 17.2227 4.99836 15.1666 4.73867Z" fill="#646464"/>
</g>
<defs>
<clipPath id="clip0_204_1759">
<rect width="28" height="28" fill="white"/>
</clipPath>
</defs>
</svg>
